<mxfile host="app.diagrams.net" modified="2023-04-26T21:39:18.247Z" agent="Mozilla/5.0 (Windows NT 10.0; Win64; x64) AppleWebKit/537.36 (KHTML, like Gecko) Chrome/112.0.0.0 Safari/537.36 Edg/112.0.1722.58" etag="Jo8faR56J4AOp0H98dsL" version="21.2.1" type="github">
  <diagram id="prtHgNgQTEPvFCAcTncT" name="Page-1">
    <mxGraphModel dx="1357" dy="1199" grid="1" gridSize="10" guides="1" tooltips="1" connect="1" arrows="1" fold="1" page="1" pageScale="1" pageWidth="1100" pageHeight="850" math="0" shadow="0">
      <root>
        <mxCell id="0" />
        <mxCell id="1" parent="0" />
        <mxCell id="NjjXwhq9uXy6HIpJC_Kg-4" value="" style="edgeStyle=orthogonalEdgeStyle;rounded=1;orthogonalLoop=1;jettySize=auto;html=1;endArrow=none;fontSize=12;strokeColor=#788AA3;fontColor=#46495D;startSize=8;endSize=8;fillColor=#B2C9AB;endFill=0;startArrow=none;startFill=0;strokeWidth=3;" edge="1" parent="1" source="NjjXwhq9uXy6HIpJC_Kg-2" target="NjjXwhq9uXy6HIpJC_Kg-3">
          <mxGeometry relative="1" as="geometry" />
        </mxCell>
        <mxCell id="NjjXwhq9uXy6HIpJC_Kg-2" value="Principal In Charge" style="whiteSpace=wrap;html=1;fontSize=14;fillColor=#dae8fc;strokeColor=#0080F0;strokeWidth=1;rounded=1;arcSize=16;glass=0;shadow=0;labelBackgroundColor=none;dashed=0;" vertex="1" parent="1">
          <mxGeometry x="596.1453854276664" y="132.80674311926606" width="137.37782470960929" height="68.68899082568808" as="geometry" />
        </mxCell>
        <mxCell id="NjjXwhq9uXy6HIpJC_Kg-6" value="" style="rounded=0;orthogonalLoop=1;jettySize=auto;html=1;endArrow=none;fontSize=12;strokeColor=#788AA3;fontColor=#46495D;startSize=8;endSize=8;fillColor=#B2C9AB;endFill=0;startArrow=none;startFill=0;strokeWidth=3;entryX=1;entryY=0.5;entryDx=0;entryDy=0;" edge="1" parent="1" target="NjjXwhq9uXy6HIpJC_Kg-5">
          <mxGeometry relative="1" as="geometry">
            <mxPoint x="597.1453854276665" y="275.8402293577981" as="sourcePoint" />
            <mxPoint x="517.1453854276665" y="275.8402293577981" as="targetPoint" />
          </mxGeometry>
        </mxCell>
        <mxCell id="NjjXwhq9uXy6HIpJC_Kg-8" value="" style="rounded=0;orthogonalLoop=1;jettySize=auto;html=1;endArrow=none;fontSize=12;strokeColor=#788AA3;fontColor=#46495D;startSize=8;endSize=8;fillColor=#B2C9AB;endFill=0;startArrow=none;startFill=0;strokeWidth=3;" edge="1" parent="1" source="NjjXwhq9uXy6HIpJC_Kg-3" target="NjjXwhq9uXy6HIpJC_Kg-7">
          <mxGeometry relative="1" as="geometry" />
        </mxCell>
        <mxCell id="NjjXwhq9uXy6HIpJC_Kg-10" value="" style="edgeStyle=orthogonalEdgeStyle;rounded=1;orthogonalLoop=1;jettySize=auto;html=1;endArrow=none;fontSize=12;strokeColor=#788AA3;fontColor=#46495D;startSize=8;endSize=8;fillColor=#B2C9AB;endFill=0;startArrow=none;startFill=0;strokeWidth=3;" edge="1" parent="1" source="NjjXwhq9uXy6HIpJC_Kg-3" target="NjjXwhq9uXy6HIpJC_Kg-9">
          <mxGeometry relative="1" as="geometry" />
        </mxCell>
        <mxCell id="NjjXwhq9uXy6HIpJC_Kg-3" value="Technical Lead" style="whiteSpace=wrap;html=1;fontSize=14;fillColor=#dae8fc;strokeColor=#0080F0;strokeWidth=1;rounded=1;arcSize=16;glass=0;shadow=0;labelBackgroundColor=none;dashed=0;" vertex="1" parent="1">
          <mxGeometry x="596.1453854276664" y="241.4957339449541" width="137.37782470960929" height="68.68899082568808" as="geometry" />
        </mxCell>
        <mxCell id="NjjXwhq9uXy6HIpJC_Kg-5" value="Project Manager" style="whiteSpace=wrap;html=1;fontSize=14;fillColor=#dae8fc;strokeColor=#0080F0;strokeWidth=1;rounded=1;arcSize=16;glass=0;shadow=0;labelBackgroundColor=none;dashed=0;" vertex="1" parent="1">
          <mxGeometry x="451.9975607180571" y="241.4957339449541" width="137.37782470960929" height="68.68899082568808" as="geometry" />
        </mxCell>
        <mxCell id="NjjXwhq9uXy6HIpJC_Kg-7" value="Design Lead" style="whiteSpace=wrap;html=1;fontSize=14;fillColor=#dae8fc;strokeColor=#0080F0;strokeWidth=1;rounded=1;arcSize=16;glass=0;shadow=0;labelBackgroundColor=none;dashed=0;" vertex="1" parent="1">
          <mxGeometry x="740.0032101372757" y="241.4957339449541" width="137.37782470960929" height="68.68899082568808" as="geometry" />
        </mxCell>
        <mxCell id="NjjXwhq9uXy6HIpJC_Kg-19" value="" style="edgeStyle=orthogonalEdgeStyle;rounded=1;orthogonalLoop=1;jettySize=auto;html=1;endArrow=none;fontSize=12;strokeColor=#788AA3;fontColor=#46495D;startSize=8;endSize=8;fillColor=#B2C9AB;endFill=0;startArrow=none;startFill=0;strokeWidth=3;" edge="1" parent="1" source="NjjXwhq9uXy6HIpJC_Kg-9" target="NjjXwhq9uXy6HIpJC_Kg-18">
          <mxGeometry relative="1" as="geometry" />
        </mxCell>
        <mxCell id="NjjXwhq9uXy6HIpJC_Kg-9" value="&lt;div style=&quot;font-size: 11px;&quot;&gt;&lt;font style=&quot;font-size: 11px;&quot;&gt;Project Architect / Project Landscape Architect /&amp;nbsp;&lt;/font&gt;&lt;/div&gt;&lt;div style=&quot;font-size: 11px;&quot;&gt;&lt;font style=&quot;font-size: 11px;&quot;&gt;Project Interior Designer&lt;/font&gt;&lt;/div&gt;" style="whiteSpace=wrap;html=1;fontSize=12;fillColor=#dae8fc;strokeColor=#0080F0;strokeWidth=1;rounded=1;arcSize=16;glass=0;shadow=0;labelBackgroundColor=none;dashed=0;" vertex="1" parent="1">
          <mxGeometry x="596.1453854276664" y="390.1847247706422" width="137.37782470960929" height="68.68899082568808" as="geometry" />
        </mxCell>
        <mxCell id="NjjXwhq9uXy6HIpJC_Kg-13" style="edgeStyle=orthogonalEdgeStyle;rounded=1;orthogonalLoop=1;jettySize=auto;html=1;endArrow=blockThin;fontSize=12;strokeColor=#788AA3;fontColor=#46495D;startSize=8;endSize=8;fillColor=#B2C9AB;endFill=1;startArrow=none;startFill=0;dashed=1;dashPattern=8 8;" edge="1" parent="1" source="NjjXwhq9uXy6HIpJC_Kg-11">
          <mxGeometry relative="1" as="geometry">
            <mxPoint x="670" y="340" as="targetPoint" />
            <Array as="points">
              <mxPoint x="830" y="340" />
            </Array>
          </mxGeometry>
        </mxCell>
        <mxCell id="NjjXwhq9uXy6HIpJC_Kg-11" value="&lt;div style=&quot;font-size: 14px;&quot;&gt;BIM Lead&lt;/div&gt;" style="whiteSpace=wrap;html=1;fontSize=14;fillColor=#dae8fc;strokeColor=#0080F0;strokeWidth=1;rounded=1;arcSize=16;glass=0;shadow=0;labelBackgroundColor=none;dashed=0;" vertex="1" parent="1">
          <mxGeometry x="760.0032101372757" y="390.1847247706422" width="137.37782470960929" height="68.68899082568808" as="geometry" />
        </mxCell>
        <mxCell id="NjjXwhq9uXy6HIpJC_Kg-15" style="edgeStyle=orthogonalEdgeStyle;rounded=1;orthogonalLoop=1;jettySize=auto;html=1;endArrow=blockThin;fontSize=12;strokeColor=#788AA3;fontColor=#46495D;startSize=8;endSize=8;fillColor=#B2C9AB;endFill=1;startArrow=none;startFill=0;dashed=1;dashPattern=8 8;" edge="1" parent="1" source="NjjXwhq9uXy6HIpJC_Kg-14">
          <mxGeometry relative="1" as="geometry">
            <mxPoint x="660" y="340" as="targetPoint" />
            <Array as="points">
              <mxPoint x="500" y="340" />
            </Array>
          </mxGeometry>
        </mxCell>
        <mxCell id="NjjXwhq9uXy6HIpJC_Kg-14" value="&lt;div style=&quot;font-size: 14px;&quot;&gt;Sustainable Design Lead&lt;/div&gt;" style="whiteSpace=wrap;html=1;fontSize=14;fillColor=#dae8fc;strokeColor=#0080F0;strokeWidth=1;rounded=1;arcSize=16;glass=0;shadow=0;labelBackgroundColor=none;dashed=0;" vertex="1" parent="1">
          <mxGeometry x="430.0032101372757" y="390.1847247706422" width="137.37782470960929" height="68.68899082568808" as="geometry" />
        </mxCell>
        <mxCell id="NjjXwhq9uXy6HIpJC_Kg-16" value="&lt;div style=&quot;font-size: 14px;&quot;&gt;Quality Reviewer&lt;/div&gt;" style="whiteSpace=wrap;html=1;fontSize=14;fillColor=#dae8fc;strokeColor=#0080F0;strokeWidth=1;rounded=1;arcSize=16;glass=0;shadow=0;labelBackgroundColor=none;dashed=0;" vertex="1" parent="1">
          <mxGeometry x="263.0032101372757" y="390.1847247706422" width="137.37782470960929" height="68.68899082568808" as="geometry" />
        </mxCell>
        <mxCell id="NjjXwhq9uXy6HIpJC_Kg-17" style="edgeStyle=orthogonalEdgeStyle;rounded=1;orthogonalLoop=1;jettySize=auto;html=1;endArrow=none;fontSize=12;strokeColor=#788AA3;fontColor=#46495D;startSize=8;endSize=8;fillColor=#B2C9AB;endFill=0;startArrow=none;startFill=0;dashed=1;dashPattern=8 8;exitX=0.5;exitY=0;exitDx=0;exitDy=0;" edge="1" parent="1" source="NjjXwhq9uXy6HIpJC_Kg-16">
          <mxGeometry relative="1" as="geometry">
            <mxPoint x="510" y="340" as="targetPoint" />
            <mxPoint x="300" y="300" as="sourcePoint" />
            <Array as="points">
              <mxPoint x="332" y="340" />
            </Array>
          </mxGeometry>
        </mxCell>
        <mxCell id="NjjXwhq9uXy6HIpJC_Kg-18" value="&lt;div style=&quot;font-size: 14px;&quot;&gt;Production Team&lt;/div&gt;" style="whiteSpace=wrap;html=1;fontSize=14;fillColor=#dae8fc;strokeColor=#0080F0;strokeWidth=1;rounded=1;arcSize=16;glass=0;shadow=0;labelBackgroundColor=none;dashed=0;" vertex="1" parent="1">
          <mxGeometry x="596.1453854276664" y="503.87371559633027" width="137.37782470960929" height="68.68899082568808" as="geometry" />
        </mxCell>
      </root>
    </mxGraphModel>
  </diagram>
</mxfile>
